<svg version="1.1" xmlns="http://www.w3.org/2000/svg" xmlns:xlink="http://www.w3.org/1999/xlink" width="604.13856" height="501.2289" viewBox="0,0,604.13856,501.2289"><g transform="translate(54.56563,49.14713)"><g data-paper-data="{&quot;isPaintingLayer&quot;:true}" fill="#ffffff" fill-rule="nonzero" stroke="none" stroke-width="0.5" stroke-linecap="butt" stroke-linejoin="miter" stroke-miterlimit="10" stroke-dasharray="" stroke-dashoffset="0" style="mix-blend-mode: normal"><path d="M-44.5625,-11.5c0,-4.38202 1.12742,-8.50072 3.10801,-12.08185c2.05831,-4.4759 5.14136,-8.39095 9.28343,-9.51043c3.70159,-2.16617 8.01009,-3.40772 12.60856,-3.40772c0.59714,0 1.1894,0.02094 1.77607,0.06211c5.23659,-0.36841 10.62591,0.01604 15.69483,-1.19925c25.61484,-6.14122 52.10161,-9.75061 78.57265,-10.76722c11.40006,-0.43782 23.56346,-1.54762 35.06642,0.24451c12.5109,1.94916 25.05484,3.91508 37.69103,4.72048c5.49594,0.3503 10.99249,0.69776 16.48998,1.02994c0.0732,-0.04809 0.14667,-0.09581 0.2204,-0.14315c1.95675,-1.69215 4.34072,-3.06993 7.96468,-3.33509c1.77704,-0.40079 3.62579,-0.61234 5.52394,-0.61234c0.14268,0 0.28508,0.0012 0.42719,0.00358c5.84523,0.09793 11.20216,2.20195 15.41206,5.65333c3.01459,0.13017 6.02964,0.24906 9.04521,0.35463c0.62775,0.02198 39.50649,-0.10889 58.62792,1.03425c21.74924,1.30025 43.46058,3.52881 65.2445,3.95421c45.73899,0.8932 91.49542,-0.01881 137.24312,0c2.78154,0.00114 11.01725,-0.26663 19.20941,0.31214c9.40553,-2.04767 19.92621,1.44707 27.15127,12.28467c3.10046,4.65069 3.29773,10.11076 2.54047,15.64165c-0.09016,1.01604 -0.2411,2.0146 -0.44916,2.99202l12.65799,2.10966l0.85208,0.23107l1.66708,0.12198l4.64356,2.40184l4.65347,2.38258l1.06823,1.28566l0.68329,0.55905l1.05672,1.05672l0.69786,0.43078l1.07308,1.52409l1.65826,2.02676l0.6402,1.23771l3.16555,4.496l0.03201,1.68596l0.30544,0.59052l0.82864,11.32476l-4.13355,7.19544l-4.04334,7.24651l-10.13723,5.11599l-0.66352,0.04191l-1.46217,0.83997l-5.48396,-0.40127l-1.39071,0.08783l-2.59111,-0.37919l-1.85899,-0.13602l-0.59314,-0.3068l-8.29159,0c-1.25754,12.01992 -2.72196,25.88448 -3.57386,36.10874c-3.28062,39.3731 -4.2498,78.80932 -4.91229,118.29438c-0.34856,20.77465 2.10204,43.50166 0.95686,64.06493c-1.71012,30.70764 -4.07937,61.27218 -7.06299,91.87172c-0.37701,3.86656 -0.75315,7.73801 -0.89387,11.62035c-0.14327,3.95259 0.15323,8.27629 -0.00463,12.5536c0.00309,0.16172 0.00463,0.32382 0.00463,0.48628c0,2.08384 -0.25495,4.10813 -0.73537,6.04338c-0.47346,2.25343 -1.22117,4.42843 -2.38963,6.45662c-0.56395,0.97889 -1.26647,1.85937 -2.02501,2.70006c-1.97175,2.57106 -4.43175,4.748 -7.24142,6.39222c-3.70159,2.16617 -8.01009,3.40772 -12.60856,3.40772c-3.13655,0 -6.13819,-0.57762 -8.90435,-1.63228c-0.69992,-0.15578 -1.38787,-0.33685 -2.05731,-0.55705l-0.15459,1.59744l-0.41314,2.07926l-0.35151,2.09057l-5.42049,19.87512l0.00669,0.48801l-0.41396,1.00533l-0.17224,0.63155l-1.40466,3.66583l-0.52966,0.81857l-1.8029,4.37848l-1.805,1.19738l-0.76162,1.17705l-9.42152,6.33811l-7.7238,-0.01767l-7.71093,0.44609l-9.75859,-5.80574l-0.82574,-1.13299l-1.86864,-1.09541l-2.043,-4.27173l-0.57425,-0.78793l-1.60584,-3.58227l-0.20701,-0.62102l-0.46909,-0.98082l-0.0204,-0.48763l-0.17576,-0.52729l-0.36854,-0.15077l-2.62658,-3.93987l-0.67991,-0.6988l-2.09631,-3.31916l-0.29275,-0.58551l-0.60308,-0.90462l-0.08915,-0.47984l-0.01502,-0.03003l-0.51137,-1.34234l-0.62279,-1.29442l-4,-11l-0.29335,-1.15315l-0.41174,-1.11637l-1.48999,-5.74712c-10.09554,0.01672 -20.21571,-0.50695 -30.31008,-0.52693c-6.09163,-0.01206 -12.25078,-1.58799 -18.34723,-1c-7.26684,0.70087 -14.48666,2.62941 -21.58938,4.25356c-20.11748,4.60018 -46.2878,-2.44114 -66.47571,-4.36055c-8.88581,-0.84484 -17.78832,-1.852 -26.7142,-1.84236c-10.97054,0.01185 -21.8955,1.44091 -32.85694,1.88772c-14.46727,0.58972 -29.11738,0.20717 -43.57296,1.03527c-28.61416,1.63919 -59.99754,6.24793 -88.27778,9.8251c-16.22248,2.05198 -32.59498,2.66435 -48.88378,4.09774c-6.19957,0.54555 -12.40804,1.04247 -18.57794,1.85779c-9.07106,1.1987 -20.81413,5.50295 -29.05401,-1.61331c-1.43405,-0.90746 -2.76939,-1.9568 -3.98631,-3.1283c-4.72434,-4.54801 -7.66376,-10.93707 -7.66376,-18.01267c0,-1.13505 0.07564,-2.25243 0.22216,-3.34738c-1.42117,-3.2087 -2.20278,-6.811 -2.22216,-10.65262c-0.12364,-24.51209 0.23757,-49.02595 0,-73.5372c-0.21757,-22.4476 -3.98235,-45.14574 -4,-67.4628c-0.04751,-60.06704 0.45371,-120.13383 1,-180.1984c0.14188,-15.59989 -0.75397,-31.2193 0,-46.8016c0,-4.36292 1.11761,-8.4648 3.08215,-12.03498c1.42486,-3.10054 3.34124,-5.93648 5.75132,-7.76577c0.0527,-1.04999 0.10833,-2.116 0.16653,-3.19925z"/></g></g></svg>